<?xml version="1.0" encoding="utf-8"?>
<!-- Generator: Adobe Illustrator 21.1.0, SVG Export Plug-In . SVG Version: 6.00 Build 0)  -->
<svg version="1.1" id="Layer_1" xmlns="http://www.w3.org/2000/svg" xmlns:xlink="http://www.w3.org/1999/xlink" x="0px" y="0px"
	 viewBox="0 0 41.4 61.9" style="enable-background:new 0 0 41.4 61.9;" xml:space="preserve">
<style type="text/css">
	.st0{fill:none;stroke:#FF7BAC;stroke-width:2;stroke-linecap:round;stroke-miterlimit:10;}
</style>
<g>
	<path class="st0" d="M1,21.5c0-4.8,2-10,5.4-13.6c3.2-3.4,8.4-6.4,13.1-6.8c5.6-0.5,9.5,1.1,13.4,5c4.6,4.6,7.9,10.2,7.4,16.8
		c-0.4,5.2-1.6,11-4.5,15.4c-1.5,2.3-3.4,4.8-5.4,6.5c-2.2,1.9-4.3,3.9-6,6.2c-3.6,5-6.5,11.4-14.1,9.6C3.5,59.1,1.4,52.3,3,48.4"/>
	<path class="st0" d="M9.9,35.4C8,33.5,14.8,27,11.7,24.9c-1-0.7-3,0.2-4.1-0.1c-2.2-0.6-0.3-4.3,0.3-5.9c2.1-4.8,5.7-8.3,10.8-9.7
		c2.7-0.7,5.9-1.1,8.1,1s3.3,5,4,7.9c1.8,7.6-0.1,16.6-6.1,21.9"/>
	<path class="st0" d="M12.4,27.3c1.3-2.3,1.2-2.8,1.8-3.6c0.9-1.1,2.3-1.7,3.6-2.4c1.8-0.9,4.7-1.6,6.5-1.5"/>
	<path class="st0" d="M12.5,26.7c1.2-2.2,5.3-1.9,6.7-1.8c2.4,0.2,4.1,1.4,4.8,3.7"/>
</g>
</svg>
